<?xml version="1.0" encoding="UTF-8" standalone="no"?>
<!DOCTYPE svg PUBLIC "-//W3C//DTD SVG 1.1//EN"
 "http://www.w3.org/Graphics/SVG/1.1/DTD/svg11.dtd">
<!-- Generated by graphviz version 2.44.2~dev.20200825.1636 (20200825.1636)
 -->
<!-- Title: Lista Pages: 1 -->
<svg width="864pt" height="58pt"
 viewBox="0.00 0.00 864.00 58.25" xmlns="http://www.w3.org/2000/svg" xmlns:xlink="http://www.w3.org/1999/xlink">
<g id="graph0" class="graph" transform="scale(0.87 0.87) rotate(0) translate(4 63)">
<title>Lista</title>
<polygon fill="white" stroke="transparent" points="-4,4 -4,-63 989.79,-63 989.79,4 -4,4"/>
<text text-anchor="middle" x="492.9" y="-7.8" font-family="Times New Roman,serif" font-size="14.00">DIGITOS0123456789</text>
<!-- &#45;&gt;0 -->
<g id="node1" class="node">
<title>&#45;&gt;0</title>
<polygon fill="#ffff00" stroke="black" points="33.09,-59 -0.09,-41 33.09,-23 66.27,-41 33.09,-59"/>
<text text-anchor="middle" x="33.09" y="-37.3" font-family="Times New Roman,serif" font-size="14.00">&#45;&gt;0</text>
</g>
<!-- &#45;&gt;1 -->
<g id="node2" class="node">
<title>&#45;&gt;1</title>
<polygon fill="#ffdf00" stroke="black" points="135.27,-59 102.09,-41 135.27,-23 168.45,-41 135.27,-59"/>
<text text-anchor="middle" x="135.27" y="-37.3" font-family="Times New Roman,serif" font-size="14.00">&#45;&gt;1</text>
</g>
<!-- &#45;&gt;0&#45;&gt;&#45;&gt;1 -->
<g id="edge1" class="edge">
<title>&#45;&gt;0:&#45;&gt;&#45;&gt;1:</title>
<path fill="none" stroke="black" d="M66.34,-41C74.47,-41 83.33,-41 91.87,-41"/>
<polygon fill="black" stroke="black" points="92.08,-44.5 102.08,-41 92.08,-37.5 92.08,-44.5"/>
</g>
<!-- &#45;&gt;2 -->
<g id="node3" class="node">
<title>&#45;&gt;2</title>
<polygon fill="#ffdf00" stroke="black" points="237.45,-59 204.27,-41 237.45,-23 270.63,-41 237.45,-59"/>
<text text-anchor="middle" x="237.45" y="-37.3" font-family="Times New Roman,serif" font-size="14.00">&#45;&gt;2</text>
</g>
<!-- &#45;&gt;1&#45;&gt;&#45;&gt;2 -->
<g id="edge2" class="edge">
<title>&#45;&gt;1:&#45;&gt;&#45;&gt;2:</title>
<path fill="none" stroke="black" d="M168.52,-41C176.65,-41 185.51,-41 194.05,-41"/>
<polygon fill="black" stroke="black" points="194.26,-44.5 204.26,-41 194.26,-37.5 194.26,-44.5"/>
</g>
<!-- &#45;&gt;3 -->
<g id="node4" class="node">
<title>&#45;&gt;3</title>
<polygon fill="#ffdf00" stroke="black" points="339.63,-59 306.45,-41 339.63,-23 372.81,-41 339.63,-59"/>
<text text-anchor="middle" x="339.63" y="-37.3" font-family="Times New Roman,serif" font-size="14.00">&#45;&gt;3</text>
</g>
<!-- &#45;&gt;2&#45;&gt;&#45;&gt;3 -->
<g id="edge3" class="edge">
<title>&#45;&gt;2:&#45;&gt;&#45;&gt;3:</title>
<path fill="none" stroke="black" d="M270.7,-41C278.83,-41 287.68,-41 296.23,-41"/>
<polygon fill="black" stroke="black" points="296.44,-44.5 306.44,-41 296.44,-37.5 296.44,-44.5"/>
</g>
<!-- &#45;&gt;4 -->
<g id="node5" class="node">
<title>&#45;&gt;4</title>
<polygon fill="#ffdf00" stroke="black" points="441.81,-59 408.63,-41 441.81,-23 474.99,-41 441.81,-59"/>
<text text-anchor="middle" x="441.81" y="-37.3" font-family="Times New Roman,serif" font-size="14.00">&#45;&gt;4</text>
</g>
<!-- &#45;&gt;3&#45;&gt;&#45;&gt;4 -->
<g id="edge4" class="edge">
<title>&#45;&gt;3:&#45;&gt;&#45;&gt;4:</title>
<path fill="none" stroke="black" d="M372.88,-41C381.01,-41 389.86,-41 398.41,-41"/>
<polygon fill="black" stroke="black" points="398.62,-44.5 408.62,-41 398.62,-37.5 398.62,-44.5"/>
</g>
<!-- &#45;&gt;5 -->
<g id="node6" class="node">
<title>&#45;&gt;5</title>
<polygon fill="#ffdf00" stroke="black" points="543.99,-59 510.81,-41 543.99,-23 577.17,-41 543.99,-59"/>
<text text-anchor="middle" x="543.99" y="-37.3" font-family="Times New Roman,serif" font-size="14.00">&#45;&gt;5</text>
</g>
<!-- &#45;&gt;4&#45;&gt;&#45;&gt;5 -->
<g id="edge5" class="edge">
<title>&#45;&gt;4:&#45;&gt;&#45;&gt;5:</title>
<path fill="none" stroke="black" d="M475.06,-41C483.19,-41 492.04,-41 500.59,-41"/>
<polygon fill="black" stroke="black" points="500.8,-44.5 510.8,-41 500.8,-37.5 500.8,-44.5"/>
</g>
<!-- &#45;&gt;6 -->
<g id="node7" class="node">
<title>&#45;&gt;6</title>
<polygon fill="#ffdf00" stroke="black" points="646.17,-59 612.99,-41 646.17,-23 679.35,-41 646.17,-59"/>
<text text-anchor="middle" x="646.17" y="-37.3" font-family="Times New Roman,serif" font-size="14.00">&#45;&gt;6</text>
</g>
<!-- &#45;&gt;5&#45;&gt;&#45;&gt;6 -->
<g id="edge6" class="edge">
<title>&#45;&gt;5:&#45;&gt;&#45;&gt;6:</title>
<path fill="none" stroke="black" d="M577.24,-41C585.37,-41 594.22,-41 602.77,-41"/>
<polygon fill="black" stroke="black" points="602.98,-44.5 612.98,-41 602.98,-37.5 602.98,-44.5"/>
</g>
<!-- &#45;&gt;7 -->
<g id="node8" class="node">
<title>&#45;&gt;7</title>
<polygon fill="#ffdf00" stroke="black" points="748.34,-59 715.17,-41 748.34,-23 781.52,-41 748.34,-59"/>
<text text-anchor="middle" x="748.34" y="-37.3" font-family="Times New Roman,serif" font-size="14.00">&#45;&gt;7</text>
</g>
<!-- &#45;&gt;6&#45;&gt;&#45;&gt;7 -->
<g id="edge7" class="edge">
<title>&#45;&gt;6:&#45;&gt;&#45;&gt;7:</title>
<path fill="none" stroke="black" d="M679.41,-41C687.55,-41 696.4,-41 704.95,-41"/>
<polygon fill="black" stroke="black" points="705.16,-44.5 715.16,-41 705.16,-37.5 705.16,-44.5"/>
</g>
<!-- &#45;&gt;8 -->
<g id="node9" class="node">
<title>&#45;&gt;8</title>
<polygon fill="#ffdf00" stroke="black" points="850.52,-59 817.34,-41 850.52,-23 883.7,-41 850.52,-59"/>
<text text-anchor="middle" x="850.52" y="-37.3" font-family="Times New Roman,serif" font-size="14.00">&#45;&gt;8</text>
</g>
<!-- &#45;&gt;7&#45;&gt;&#45;&gt;8 -->
<g id="edge8" class="edge">
<title>&#45;&gt;7:&#45;&gt;&#45;&gt;8:</title>
<path fill="none" stroke="black" d="M781.59,-41C789.73,-41 798.58,-41 807.13,-41"/>
<polygon fill="black" stroke="black" points="807.34,-44.5 817.34,-41 807.34,-37.5 807.34,-44.5"/>
</g>
<!-- &#45;&gt;9 -->
<g id="node10" class="node">
<title>&#45;&gt;9</title>
<polygon fill="#ffdf00" stroke="black" points="952.7,-59 919.52,-41 952.7,-23 985.88,-41 952.7,-59"/>
<text text-anchor="middle" x="952.7" y="-37.3" font-family="Times New Roman,serif" font-size="14.00">&#45;&gt;9</text>
</g>
<!-- &#45;&gt;8&#45;&gt;&#45;&gt;9 -->
<g id="edge9" class="edge">
<title>&#45;&gt;8:&#45;&gt;&#45;&gt;9:</title>
<path fill="none" stroke="black" d="M883.77,-41C891.91,-41 900.76,-41 909.31,-41"/>
<polygon fill="black" stroke="black" points="909.52,-44.5 919.52,-41 909.52,-37.5 909.52,-44.5"/>
</g>
</g>
</svg>
