<?xml version="1.0" encoding="UTF-8" standalone="no"?>
<!DOCTYPE svg PUBLIC "-//W3C//DTD SVG 1.1//EN"
 "http://www.w3.org/Graphics/SVG/1.1/DTD/svg11.dtd">
<!-- Generated by graphviz version 2.44.2~dev.20200825.1636 (20200825.1636)
 -->
<!-- Title: Lista Pages: 1 -->
<svg width="556pt" height="131pt"
 viewBox="0.00 0.00 556.26 131.09" xmlns="http://www.w3.org/2000/svg" xmlns:xlink="http://www.w3.org/1999/xlink">
<g id="graph0" class="graph" transform="scale(1 1) rotate(0) translate(4 127.09)">
<title>Lista</title>
<polygon fill="white" stroke="transparent" points="-4,4 -4,-127.09 552.26,-127.09 552.26,4 -4,4"/>
<text text-anchor="middle" x="274.13" y="-7.8" font-family="Times New Roman,serif" font-size="14.00">&gt;&gt;&gt;Personas&lt;&lt;&lt;</text>
<!-- Luis -->
<g id="node1" class="node">
<title>Luis</title>
<ellipse fill="#0000ff" stroke="black" cx="26.65" cy="-73.05" rx="26.8" ry="26.8"/>
<text text-anchor="middle" x="26.65" y="-69.35" font-family="Times New Roman,serif" font-size="14.00">Luis</text>
</g>
<!-- Persona1 -->
<g id="node2" class="node">
<title>Persona1</title>
<ellipse fill="#008000" stroke="black" cx="133.49" cy="-73.05" rx="44.39" ry="44.39"/>
<text text-anchor="middle" x="133.49" y="-69.35" font-family="Times New Roman,serif" font-size="14.00">Persona1</text>
</g>
<!-- Luis&#45;&gt;Persona1 -->
<g id="edge1" class="edge">
<title>Luis:&#45;&gt;Persona1:</title>
<path fill="none" stroke="black" d="M52.76,-67.19C60.86,-66.6 70.16,-66.31 79.49,-66.3"/>
<polygon fill="black" stroke="black" points="79.53,-69.8 89.56,-66.39 79.6,-62.8 79.53,-69.8"/>
</g>
<!-- Persona1&#45;&gt;Luis -->
<g id="edge8" class="edge">
<title>Persona1:&#45;&gt;Luis:</title>
<path fill="none" stroke="black" d="M89.56,-79.7C80.67,-79.88 71.39,-79.81 62.81,-79.46"/>
<polygon fill="black" stroke="black" points="62.94,-75.96 52.76,-78.9 62.55,-82.95 62.94,-75.96"/>
</g>
<!-- Persona2 -->
<g id="node3" class="node">
<title>Persona2</title>
<ellipse fill="#008000" stroke="black" cx="257.88" cy="-73.05" rx="44.39" ry="44.39"/>
<text text-anchor="middle" x="257.88" y="-69.35" font-family="Times New Roman,serif" font-size="14.00">Persona2</text>
</g>
<!-- Persona1&#45;&gt;Persona2 -->
<g id="edge2" class="edge">
<title>Persona1:&#45;&gt;Persona2:</title>
<path fill="none" stroke="black" d="M177.3,-66.57C185.82,-66.31 194.87,-66.23 203.69,-66.35"/>
<polygon fill="black" stroke="black" points="203.82,-69.85 213.89,-66.57 203.97,-62.85 203.82,-69.85"/>
</g>
<!-- Persona2&#45;&gt;Persona1 -->
<g id="edge7" class="edge">
<title>Persona2:&#45;&gt;Persona1:</title>
<path fill="none" stroke="black" d="M213.89,-79.52C205.36,-79.79 196.32,-79.86 187.5,-79.74"/>
<polygon fill="black" stroke="black" points="187.37,-76.24 177.3,-79.52 187.22,-83.24 187.37,-76.24"/>
</g>
<!-- Disponible -->
<g id="node4" class="node">
<title>Disponible</title>
<ellipse fill="#ffffff" stroke="black" cx="388.13" cy="-73.05" rx="50.09" ry="50.09"/>
<text text-anchor="middle" x="388.13" y="-69.35" font-family="Times New Roman,serif" font-size="14.00">Disponible</text>
</g>
<!-- Persona2&#45;&gt;Disponible -->
<g id="edge3" class="edge">
<title>Persona2:&#45;&gt;Disponible:</title>
<path fill="none" stroke="black" d="M301.94,-66.63C310.31,-66.36 319.22,-66.25 328,-66.31"/>
<polygon fill="black" stroke="black" points="328.16,-69.82 338.21,-66.47 328.26,-62.82 328.16,-69.82"/>
</g>
<!-- Disponible&#45;&gt;Persona2 -->
<g id="edge6" class="edge">
<title>Disponible:&#45;&gt;Persona2:</title>
<path fill="none" stroke="black" d="M338.21,-79.62C329.63,-79.82 320.66,-79.85 311.97,-79.71"/>
<polygon fill="black" stroke="black" points="312.03,-76.21 301.94,-79.46 311.85,-83.2 312.03,-76.21"/>
</g>
<!-- Manuel -->
<g id="node5" class="node">
<title>Manuel</title>
<ellipse fill="#ff0000" stroke="black" cx="511.22" cy="-73.05" rx="37.09" ry="37.09"/>
<text text-anchor="middle" x="511.22" y="-69.35" font-family="Times New Roman,serif" font-size="14.00">Manuel</text>
</g>
<!-- Disponible&#45;&gt;Manuel -->
<g id="edge4" class="edge">
<title>Disponible:&#45;&gt;Manuel:</title>
<path fill="none" stroke="black" d="M438.03,-66.41C446.71,-66.24 455.72,-66.26 464.31,-66.47"/>
<polygon fill="black" stroke="black" points="464.42,-69.98 474.54,-66.83 464.66,-62.98 464.42,-69.98"/>
</g>
<!-- Manuel&#45;&gt;Disponible -->
<g id="edge5" class="edge">
<title>Manuel:&#45;&gt;Disponible:</title>
<path fill="none" stroke="black" d="M474.54,-79.26C466.23,-79.64 457.17,-79.82 448.15,-79.79"/>
<polygon fill="black" stroke="black" points="448.07,-76.29 438.03,-79.68 447.99,-83.29 448.07,-76.29"/>
</g>
</g>
</svg>
