<?xml version="1.0" encoding="UTF-8" standalone="no"?>
<!DOCTYPE svg PUBLIC "-//W3C//DTD SVG 1.1//EN"
 "http://www.w3.org/Graphics/SVG/1.1/DTD/svg11.dtd">
<!-- Generated by graphviz version 2.44.2~dev.20200825.1636 (20200825.1636)
 -->
<!-- Title: Matriz Pages: 1 -->
<svg width="56pt" height="576pt"
 viewBox="0.00 0.00 55.83 576.00" xmlns="http://www.w3.org/2000/svg" xmlns:xlink="http://www.w3.org/1999/xlink">
<g id="graph0" class="graph" transform="scale(0.66 0.66) rotate(0) translate(4 873)">
<title>Matriz</title>
<polygon fill="white" stroke="transparent" points="-4,4 -4,-873 81,-873 81,4 -4,4"/>
<text text-anchor="middle" x="38.5" y="-7.8" font-family="Times New Roman,serif" font-size="14.00">Frutas</text>
<!-- 11 -->
<g id="node1" class="node">
<title>11</title>
<polygon fill="#8e6995" stroke="black" points="65.5,-59 11.5,-59 11.5,-23 65.5,-23 65.5,-59"/>
<text text-anchor="middle" x="38.5" y="-37.3" font-family="Times New Roman,serif" font-size="14.00">Uvas</text>
</g>
<!-- 21 -->
<g id="node2" class="node">
<title>21</title>
<polygon fill="#8e6995" stroke="black" points="77,-113 0,-113 0,-77 77,-77 77,-113"/>
<text text-anchor="middle" x="38.5" y="-91.3" font-family="Times New Roman,serif" font-size="14.00">Arandanos</text>
</g>
<!-- 31 -->
<g id="node3" class="node">
<title>31</title>
<polygon fill="#ffff00" stroke="black" points="77,-167 0,-167 0,-131 77,-131 77,-167"/>
<text text-anchor="middle" x="38.5" y="-145.3" font-family="Times New Roman,serif" font-size="14.00">Disponible</text>
</g>
<!-- 41 -->
<g id="node4" class="node">
<title>41</title>
<polygon fill="#ffff00" stroke="black" points="77,-221 0,-221 0,-185 77,-185 77,-221"/>
<text text-anchor="middle" x="38.5" y="-199.3" font-family="Times New Roman,serif" font-size="14.00">Disponible</text>
</g>
<!-- 12 -->
<g id="node5" class="node">
<title>12</title>
<polygon fill="#ff0000" stroke="black" points="68.5,-275 8.5,-275 8.5,-239 68.5,-239 68.5,-275"/>
<text text-anchor="middle" x="38.5" y="-253.3" font-family="Times New Roman,serif" font-size="14.00">Sandias</text>
</g>
<!-- 22 -->
<g id="node6" class="node">
<title>22</title>
<polygon fill="#ff0000" stroke="black" points="77,-329 0,-329 0,-293 77,-293 77,-329"/>
<text text-anchor="middle" x="38.5" y="-307.3" font-family="Times New Roman,serif" font-size="14.00">Disponible</text>
</g>
<!-- 32 -->
<g id="node7" class="node">
<title>32</title>
<polygon fill="#ff0000" stroke="black" points="74.5,-383 2.5,-383 2.5,-347 74.5,-347 74.5,-383"/>
<text text-anchor="middle" x="38.5" y="-361.3" font-family="Times New Roman,serif" font-size="14.00">Manzanas</text>
</g>
<!-- 42 -->
<g id="node8" class="node">
<title>42</title>
<polygon fill="#ffff00" stroke="black" points="77,-437 0,-437 0,-401 77,-401 77,-437"/>
<text text-anchor="middle" x="38.5" y="-415.3" font-family="Times New Roman,serif" font-size="14.00">Disponible</text>
</g>
<!-- 13 -->
<g id="node9" class="node">
<title>13</title>
<polygon fill="#ffff00" stroke="black" points="77,-491 0,-491 0,-455 77,-455 77,-491"/>
<text text-anchor="middle" x="38.5" y="-469.3" font-family="Times New Roman,serif" font-size="14.00">Disponible</text>
</g>
<!-- 23 -->
<g id="node10" class="node">
<title>23</title>
<polygon fill="#ffff00" stroke="black" points="77,-545 0,-545 0,-509 77,-509 77,-545"/>
<text text-anchor="middle" x="38.5" y="-523.3" font-family="Times New Roman,serif" font-size="14.00">Disponible</text>
</g>
<!-- 33 -->
<g id="node11" class="node">
<title>33</title>
<polygon fill="#ffff00" stroke="black" points="67,-599 10,-599 10,-563 67,-563 67,-599"/>
<text text-anchor="middle" x="38.5" y="-577.3" font-family="Times New Roman,serif" font-size="14.00">Piñas</text>
</g>
<!-- 43 -->
<g id="node12" class="node">
<title>43</title>
<polygon fill="#ffff00" stroke="black" points="77,-653 0,-653 0,-617 77,-617 77,-653"/>
<text text-anchor="middle" x="38.5" y="-631.3" font-family="Times New Roman,serif" font-size="14.00">Disponible</text>
</g>
<!-- 14 -->
<g id="node13" class="node">
<title>14</title>
<polygon fill="#ffff00" stroke="black" points="77,-707 0,-707 0,-671 77,-671 77,-707"/>
<text text-anchor="middle" x="38.5" y="-685.3" font-family="Times New Roman,serif" font-size="14.00">Disponible</text>
</g>
<!-- 24 -->
<g id="node14" class="node">
<title>24</title>
<polygon fill="#ffff00" stroke="black" points="77,-761 0,-761 0,-725 77,-725 77,-761"/>
<text text-anchor="middle" x="38.5" y="-739.3" font-family="Times New Roman,serif" font-size="14.00">Disponible</text>
</g>
<!-- 34 -->
<g id="node15" class="node">
<title>34</title>
<polygon fill="#ffff00" stroke="black" points="77,-815 0,-815 0,-779 77,-779 77,-815"/>
<text text-anchor="middle" x="38.5" y="-793.3" font-family="Times New Roman,serif" font-size="14.00">Disponible</text>
</g>
<!-- 44 -->
<g id="node16" class="node">
<title>44</title>
<polygon fill="#ff6600" stroke="black" points="66.5,-869 10.5,-869 10.5,-833 66.5,-833 66.5,-869"/>
<text text-anchor="middle" x="38.5" y="-847.3" font-family="Times New Roman,serif" font-size="14.00">Mango</text>
</g>
</g>
</svg>
