<?xml version="1.0" encoding="UTF-8" standalone="no"?>
<!DOCTYPE svg PUBLIC "-//W3C//DTD SVG 1.1//EN"
 "http://www.w3.org/Graphics/SVG/1.1/DTD/svg11.dtd">
<!-- Generated by graphviz version 2.44.2~dev.20200825.1636 (20200825.1636)
 -->
<!-- Title: Matriz Pages: 1 -->
<svg width="576pt" height="183pt"
 viewBox="0.00 0.00 576.00 183.45" xmlns="http://www.w3.org/2000/svg" xmlns:xlink="http://www.w3.org/1999/xlink">
<g id="graph0" class="graph" transform="scale(0.8 0.8) rotate(0) translate(4 225)">
<title>Matriz</title>
<polygon fill="white" stroke="transparent" points="-4,4 -4,-225 715,-225 715,4 -4,4"/>
<text text-anchor="middle" x="355.5" y="-7.8" font-family="Times New Roman,serif" font-size="14.00">Frutas</text>
<!-- 11 -->
<g id="node1" class="node">
<title>11</title>
<polygon fill="#8e6995" stroke="black" points="54,-140 0,-140 0,-104 54,-104 54,-140"/>
<text text-anchor="middle" x="27" y="-118.3" font-family="Times New Roman,serif" font-size="14.00">Uvas</text>
</g>
<!-- 21 -->
<g id="node2" class="node">
<title>21</title>
<polygon fill="#8e6995" stroke="black" points="167,-167 90,-167 90,-131 167,-131 167,-167"/>
<text text-anchor="middle" x="128.5" y="-145.3" font-family="Times New Roman,serif" font-size="14.00">Arandanos</text>
</g>
<!-- 11&#45;&gt;21 -->
<g id="edge1" class="edge">
<title>11:&#45;&gt;21:</title>
<path fill="none" stroke="black" d="M54.14,-129.09C62.18,-131.27 71.28,-133.74 80.27,-136.18"/>
<polygon fill="black" stroke="black" points="79.36,-139.56 89.93,-138.81 81.2,-132.81 79.36,-139.56"/>
</g>
<!-- 12 -->
<g id="node5" class="node">
<title>12</title>
<polygon fill="#ff0000" stroke="black" points="158.5,-113 98.5,-113 98.5,-77 158.5,-77 158.5,-113"/>
<text text-anchor="middle" x="128.5" y="-91.3" font-family="Times New Roman,serif" font-size="14.00">Sandias</text>
</g>
<!-- 11&#45;&gt;12 -->
<g id="edge13" class="edge">
<title>11:&#45;&gt;12:</title>
<path fill="none" stroke="black" d="M54.14,-114.91C64.65,-112.05 76.99,-108.71 88.52,-105.58"/>
<polygon fill="black" stroke="black" points="89.64,-108.9 98.38,-102.9 87.81,-102.14 89.64,-108.9"/>
</g>
<!-- 31 -->
<g id="node3" class="node">
<title>31</title>
<polygon fill="#ffff00" stroke="black" points="280,-194 203,-194 203,-158 280,-158 280,-194"/>
<text text-anchor="middle" x="241.5" y="-172.3" font-family="Times New Roman,serif" font-size="14.00">Disponible</text>
</g>
<!-- 21&#45;&gt;31 -->
<g id="edge2" class="edge">
<title>21:&#45;&gt;31:</title>
<path fill="none" stroke="black" d="M167.08,-158.14C175.4,-160.16 184.32,-162.33 192.97,-164.44"/>
<polygon fill="black" stroke="black" points="192.42,-167.91 202.96,-166.87 194.07,-161.1 192.42,-167.91"/>
</g>
<!-- 22 -->
<g id="node6" class="node">
<title>22</title>
<polygon fill="#ff0000" stroke="black" points="280,-140 203,-140 203,-104 280,-104 280,-140"/>
<text text-anchor="middle" x="241.5" y="-118.3" font-family="Times New Roman,serif" font-size="14.00">Disponible</text>
</g>
<!-- 21&#45;&gt;22 -->
<g id="edge16" class="edge">
<title>21:&#45;&gt;22:</title>
<path fill="none" stroke="black" d="M167.08,-139.86C175.4,-137.84 184.32,-135.67 192.97,-133.56"/>
<polygon fill="black" stroke="black" points="194.07,-136.9 202.96,-131.13 192.42,-130.09 194.07,-136.9"/>
</g>
<!-- 41 -->
<g id="node4" class="node">
<title>41</title>
<polygon fill="#ffff00" stroke="black" points="393,-221 316,-221 316,-185 393,-185 393,-221"/>
<text text-anchor="middle" x="354.5" y="-199.3" font-family="Times New Roman,serif" font-size="14.00">Disponible</text>
</g>
<!-- 31&#45;&gt;41 -->
<g id="edge3" class="edge">
<title>31:&#45;&gt;41:</title>
<path fill="none" stroke="black" d="M280.08,-185.14C288.4,-187.16 297.32,-189.33 305.97,-191.44"/>
<polygon fill="black" stroke="black" points="305.42,-194.91 315.96,-193.87 307.07,-188.1 305.42,-194.91"/>
</g>
<!-- 32 -->
<g id="node7" class="node">
<title>32</title>
<polygon fill="#ff0000" stroke="black" points="390.5,-167 318.5,-167 318.5,-131 390.5,-131 390.5,-167"/>
<text text-anchor="middle" x="354.5" y="-145.3" font-family="Times New Roman,serif" font-size="14.00">Manzanas</text>
</g>
<!-- 31&#45;&gt;32 -->
<g id="edge19" class="edge">
<title>31:&#45;&gt;32:</title>
<path fill="none" stroke="black" d="M280.08,-166.86C289.13,-164.66 298.9,-162.28 308.26,-160"/>
<polygon fill="black" stroke="black" points="309.32,-163.35 318.21,-157.58 307.66,-156.55 309.32,-163.35"/>
</g>
<!-- 42 -->
<g id="node8" class="node">
<title>42</title>
<polygon fill="#ffff00" stroke="black" points="506,-194 429,-194 429,-158 506,-158 506,-194"/>
<text text-anchor="middle" x="467.5" y="-172.3" font-family="Times New Roman,serif" font-size="14.00">Disponible</text>
</g>
<!-- 41&#45;&gt;42 -->
<g id="edge22" class="edge">
<title>41:&#45;&gt;42:</title>
<path fill="none" stroke="black" d="M393.08,-193.86C401.4,-191.84 410.32,-189.67 418.97,-187.56"/>
<polygon fill="black" stroke="black" points="420.07,-190.9 428.96,-185.13 418.42,-184.09 420.07,-190.9"/>
</g>
<!-- 12&#45;&gt;22 -->
<g id="edge4" class="edge">
<title>12:&#45;&gt;22:</title>
<path fill="none" stroke="black" d="M158.66,-102.09C169.1,-104.63 181.15,-107.56 192.74,-110.38"/>
<polygon fill="black" stroke="black" points="192.21,-113.86 202.75,-112.82 193.86,-107.05 192.21,-113.86"/>
</g>
<!-- 13 -->
<g id="node9" class="node">
<title>13</title>
<polygon fill="#ffff00" stroke="black" points="280,-86 203,-86 203,-50 280,-50 280,-86"/>
<text text-anchor="middle" x="241.5" y="-64.3" font-family="Times New Roman,serif" font-size="14.00">Disponible</text>
</g>
<!-- 12&#45;&gt;13 -->
<g id="edge14" class="edge">
<title>12:&#45;&gt;13:</title>
<path fill="none" stroke="black" d="M158.66,-87.91C169.1,-85.37 181.15,-82.44 192.74,-79.62"/>
<polygon fill="black" stroke="black" points="193.86,-82.95 202.75,-77.18 192.21,-76.14 193.86,-82.95"/>
</g>
<!-- 22&#45;&gt;32 -->
<g id="edge5" class="edge">
<title>22:&#45;&gt;32:</title>
<path fill="none" stroke="black" d="M280.08,-131.14C289.13,-133.34 298.9,-135.72 308.26,-138"/>
<polygon fill="black" stroke="black" points="307.66,-141.45 318.21,-140.42 309.32,-134.65 307.66,-141.45"/>
</g>
<!-- 23 -->
<g id="node10" class="node">
<title>23</title>
<polygon fill="#ffff00" stroke="black" points="393,-113 316,-113 316,-77 393,-77 393,-113"/>
<text text-anchor="middle" x="354.5" y="-91.3" font-family="Times New Roman,serif" font-size="14.00">Disponible</text>
</g>
<!-- 22&#45;&gt;23 -->
<g id="edge17" class="edge">
<title>22:&#45;&gt;23:</title>
<path fill="none" stroke="black" d="M280.08,-112.86C288.4,-110.84 297.32,-108.67 305.97,-106.56"/>
<polygon fill="black" stroke="black" points="307.07,-109.9 315.96,-104.13 305.42,-103.09 307.07,-109.9"/>
</g>
<!-- 32&#45;&gt;42 -->
<g id="edge6" class="edge">
<title>32:&#45;&gt;42:</title>
<path fill="none" stroke="black" d="M390.62,-157.54C399.67,-159.74 409.56,-162.15 419.12,-164.48"/>
<polygon fill="black" stroke="black" points="418.38,-167.9 428.92,-166.86 420.03,-161.09 418.38,-167.9"/>
</g>
<!-- 33 -->
<g id="node11" class="node">
<title>33</title>
<polygon fill="#ffff00" stroke="black" points="496,-140 439,-140 439,-104 496,-104 496,-140"/>
<text text-anchor="middle" x="467.5" y="-118.3" font-family="Times New Roman,serif" font-size="14.00">Piñas</text>
</g>
<!-- 32&#45;&gt;33 -->
<g id="edge20" class="edge">
<title>32:&#45;&gt;33:</title>
<path fill="none" stroke="black" d="M390.62,-140.46C402.83,-137.49 416.56,-134.15 428.96,-131.13"/>
<polygon fill="black" stroke="black" points="430.1,-134.46 438.99,-128.69 428.45,-127.65 430.1,-134.46"/>
</g>
<!-- 43 -->
<g id="node12" class="node">
<title>43</title>
<polygon fill="#ffff00" stroke="black" points="619,-167 542,-167 542,-131 619,-131 619,-167"/>
<text text-anchor="middle" x="580.5" y="-145.3" font-family="Times New Roman,serif" font-size="14.00">Disponible</text>
</g>
<!-- 42&#45;&gt;43 -->
<g id="edge23" class="edge">
<title>42:&#45;&gt;43:</title>
<path fill="none" stroke="black" d="M506.08,-166.86C514.4,-164.84 523.32,-162.67 531.97,-160.56"/>
<polygon fill="black" stroke="black" points="533.07,-163.9 541.96,-158.13 531.42,-157.09 533.07,-163.9"/>
</g>
<!-- 13&#45;&gt;23 -->
<g id="edge7" class="edge">
<title>13:&#45;&gt;23:</title>
<path fill="none" stroke="black" d="M280.08,-77.14C288.4,-79.16 297.32,-81.33 305.97,-83.44"/>
<polygon fill="black" stroke="black" points="305.42,-86.91 315.96,-85.87 307.07,-80.1 305.42,-86.91"/>
</g>
<!-- 14 -->
<g id="node13" class="node">
<title>14</title>
<polygon fill="#ffff00" stroke="black" points="393,-59 316,-59 316,-23 393,-23 393,-59"/>
<text text-anchor="middle" x="354.5" y="-37.3" font-family="Times New Roman,serif" font-size="14.00">Disponible</text>
</g>
<!-- 13&#45;&gt;14 -->
<g id="edge15" class="edge">
<title>13:&#45;&gt;14:</title>
<path fill="none" stroke="black" d="M280.08,-58.86C288.4,-56.84 297.32,-54.67 305.97,-52.56"/>
<polygon fill="black" stroke="black" points="307.07,-55.9 315.96,-50.13 305.42,-49.09 307.07,-55.9"/>
</g>
<!-- 23&#45;&gt;33 -->
<g id="edge8" class="edge">
<title>23:&#45;&gt;33:</title>
<path fill="none" stroke="black" d="M393.08,-104.14C404.66,-106.96 417.4,-110.06 428.97,-112.87"/>
<polygon fill="black" stroke="black" points="428.24,-116.3 438.79,-115.26 429.9,-109.49 428.24,-116.3"/>
</g>
<!-- 24 -->
<g id="node14" class="node">
<title>24</title>
<polygon fill="#ffff00" stroke="black" points="506,-86 429,-86 429,-50 506,-50 506,-86"/>
<text text-anchor="middle" x="467.5" y="-64.3" font-family="Times New Roman,serif" font-size="14.00">Disponible</text>
</g>
<!-- 23&#45;&gt;24 -->
<g id="edge18" class="edge">
<title>23:&#45;&gt;24:</title>
<path fill="none" stroke="black" d="M393.08,-85.86C401.4,-83.84 410.32,-81.67 418.97,-79.56"/>
<polygon fill="black" stroke="black" points="420.07,-82.9 428.96,-77.13 418.42,-76.09 420.07,-82.9"/>
</g>
<!-- 33&#45;&gt;43 -->
<g id="edge9" class="edge">
<title>33:&#45;&gt;43:</title>
<path fill="none" stroke="black" d="M496.22,-128.74C506.96,-131.35 519.56,-134.42 531.67,-137.37"/>
<polygon fill="black" stroke="black" points="531.13,-140.84 541.67,-139.8 532.78,-134.03 531.13,-140.84"/>
</g>
<!-- 34 -->
<g id="node15" class="node">
<title>34</title>
<polygon fill="#ffff00" stroke="black" points="619,-113 542,-113 542,-77 619,-77 619,-113"/>
<text text-anchor="middle" x="580.5" y="-91.3" font-family="Times New Roman,serif" font-size="14.00">Disponible</text>
</g>
<!-- 33&#45;&gt;34 -->
<g id="edge21" class="edge">
<title>33:&#45;&gt;34:</title>
<path fill="none" stroke="black" d="M496.22,-115.26C506.96,-112.65 519.56,-109.58 531.67,-106.63"/>
<polygon fill="black" stroke="black" points="532.78,-109.97 541.67,-104.2 531.13,-103.16 532.78,-109.97"/>
</g>
<!-- 44 -->
<g id="node16" class="node">
<title>44</title>
<polygon fill="#ff6600" stroke="black" points="711,-140 655,-140 655,-104 711,-104 711,-140"/>
<text text-anchor="middle" x="683" y="-118.3" font-family="Times New Roman,serif" font-size="14.00">Mango</text>
</g>
<!-- 43&#45;&gt;44 -->
<g id="edge24" class="edge">
<title>43:&#45;&gt;44:</title>
<path fill="none" stroke="black" d="M619.21,-138.87C627.6,-136.61 636.5,-134.22 644.87,-131.98"/>
<polygon fill="black" stroke="black" points="646,-135.3 654.75,-129.32 644.19,-128.53 646,-135.3"/>
</g>
<!-- 14&#45;&gt;24 -->
<g id="edge10" class="edge">
<title>14:&#45;&gt;24:</title>
<path fill="none" stroke="black" d="M393.08,-50.14C401.4,-52.16 410.32,-54.33 418.97,-56.44"/>
<polygon fill="black" stroke="black" points="418.42,-59.91 428.96,-58.87 420.07,-53.1 418.42,-59.91"/>
</g>
<!-- 24&#45;&gt;34 -->
<g id="edge11" class="edge">
<title>24:&#45;&gt;34:</title>
<path fill="none" stroke="black" d="M506.08,-77.14C514.4,-79.16 523.32,-81.33 531.97,-83.44"/>
<polygon fill="black" stroke="black" points="531.42,-86.91 541.96,-85.87 533.07,-80.1 531.42,-86.91"/>
</g>
<!-- 34&#45;&gt;44 -->
<g id="edge12" class="edge">
<title>34:&#45;&gt;44:</title>
<path fill="none" stroke="black" d="M619.21,-105.13C627.6,-107.39 636.5,-109.78 644.87,-112.02"/>
<polygon fill="black" stroke="black" points="644.19,-115.47 654.75,-114.68 646,-108.7 644.19,-115.47"/>
</g>
</g>
</svg>
